# xmcd
#
# Track frame offsets:
#	150
#	16074
#	37683
#	56562
#	80000
#	96609
#	115690
#	138124
#	154706
#	173391
#	192355
#	213951
#
# Disc length: 3183 seconds
#
# Revision: 1
# Processed by: cddbd v1.5.2PL0 Copyright (c) Steve Scherf et al.
# Submitted via: audiograbber 1.83.01
#
DISCID=8d0c6d0c
DTITLE=Jail Job Eve - The Mission
DYEAR=2018
DGENRE=Blues
TTITLE0=Back in the Game
TTITLE1=Dangerous Eyes
TTITLE2=Closer to the rain
TTITLE3=Nothing to lose
TTITLE4=The Mission
TTITLE5=Run like hell
TTITLE6=On the River
TTITLE7=Place to be
TTITLE8=The biggest part
TTITLE9=Pay to play
TTITLE10=Are you in?
TTITLE11=What remains
EXTD=
EXTT0=
EXTT1=
EXTT2=
EXTT3=
EXTT4=
EXTT5=
EXTT6=
EXTT7=
EXTT8=
EXTT9=
EXTT10=
EXTT11=
PLAYORDER=
